<?xml version="1.0" standalone="yes"?>
<svg xmlns="http://www.w3.org/2000/svg" width="400" height="400">
<path style="fill:#f8fcf9; stroke:none;" d="M0 0L0 145L24 128.627L63 100.151L199 1L180 0L140 0L0 0z"/>
<path style="fill:#0ea140; stroke:none;" d="M70 400L330 400C334.479 378.356 343.482 357.01 350.33 336C362.37 299.06 374.495 262.103 386.025 225C392.37 204.583 400 186.566 400 165C400 159.648 401.353 152.088 399.397 147.04C397.534 142.235 390.989 139.146 387 136.29C377.274 129.328 367.629 122.213 358 115.116C320.791 87.69 283.58 60.2039 246 33.2901C234.942 25.3708 224.058 17.2095 213 9.29013C209.598 6.85339 204.418 1.12808 200 1.12808C195.692 1.12808 190.319 6.73148 187 9.15125C175.989 17.1804 165.08 25.3552 154 33.2901C116.42 60.2043 79.2089 87.6898 42 115.116C32.0553 122.446 21.9453 129.554 12 136.884C8.32774 139.591 2.36506 142.662 0.603395 147.09C-1.37981 152.075 0 159.698 0 165C0 186.529 7.64706 204.639 13.9745 225C25.5043 262.101 37.6183 299.062 49.6698 336C56.5225 357.004 65.5218 378.361 70 400z"/>
<path style="fill:#f8fcf9; stroke:none;" d="M201 0L201 1L337 100.151L376 128.627L400 145L400 0L201 0z"/>
<path style="fill:#efe134; stroke:none;" d="M196 2L197 3L196 2M203 2L204 3L203 2M192 5L193 6L192 5M207 5L208 6L207 5M189 7L190 8L189 7M211 8L212 9L211 8M181 13L182 14L181 13M218 13L219 14L218 13M222 16L223 17L222 16M174 18L175 19L174 18M225 18L226 19L225 18M170 21L171 22L170 21M229 21L230 22L229 21M166 24L167 25L166 24M233 24L234 25L233 24M199 25.9553C194.741 26.7206 190.436 31.2596 187 33.7091C177.613 40.4015 168.387 47.3071 159 54C124.736 78.4313 91.1198 103.789 57 128.424C46.6195 135.919 36.3065 143.519 26 151.116C22.6423 153.591 15.9097 156.661 14.9282 161.09C12.8659 170.398 22.5715 187.009 25.2801 196C34.6617 227.143 45.0454 258.136 55.3333 289C62.6454 310.936 69.362 333.065 76.6667 355C78.5918 360.781 80.4633 375.389 85.5131 378.972C89.0504 381.482 96.8545 380 101 380L142 380L260 380C275.755 380 297.766 384.031 312.867 379.682C319.009 377.913 321.176 361.474 323 356C330.975 332.065 338.354 307.938 346.333 284C356.183 254.45 365.783 224.741 375.025 195C377.681 186.453 387.235 169.914 385.096 161.09C384.083 156.909 378.203 154.184 375 151.849C366.332 145.529 357.588 139.301 349 132.873C313.343 106.186 277.243 79.8864 241 54C230.956 46.826 221.035 39.4766 211 32.2901C207.791 29.9921 203.331 25.1769 199 25.9553M236 26L237 27L236 26M159 29L160 30L159 29M240 29L241 30L240 29M243 31L244 32L243 31M155 32L156 33L155 32M244 32L245 33L244 32M148 37L149 38L148 37M251 37L252 38L251 37M144 40L145 41L144 40M255 40L256 41L255 40M140 43L141 44L140 43M262 45L263 46L262 45M263 46L264 47L263 46M133 48L134 49L133 48M266 48L267 49L266 48M129 51L130 52L129 51M270 51L271 52L270 51M122 56L123 57L122 56M277 56L278 57L277 56M118 59L119 60L118 59M281 59L282 60L281 59M110 65L111 66L110 65z"/>
<path style="fill:#ab412c; stroke:none;" d="M171 66L171 67L174 68L171 66z"/>
<path style="fill:#efe134; stroke:none;" d="M107 67L108 68L107 67z"/>
<path style="fill:#21445d; stroke:none;" d="M161 75C167.959 80.4145 176.75 90.3457 179 99C184.724 96.7982 194.849 90.0612 186 85L187 92L177 81L183 81L177 75L177 80L169 71L176 72C173.123 63.3867 164.576 70.6076 161 75z"/>
<path style="fill:#efe134; stroke:none;" d="M292 67L293 68L292 67z"/>
<path style="fill:#0ea140; stroke:none;" d="M168 68L169 69L168 68M174 68L175 69L174 68z"/>
<path style="fill:#21445d; stroke:none;" d="M232 68C230.244 76.7312 219.802 88.9189 212 93L212 95C215.715 97.54 228.182 108.13 228 97L222 100L221 99C223.735 94.6231 226.792 89.2916 232 88L231 92L237 85L232 86L240 76L241 77L240 83C249.168 77.7567 237.953 70.0075 232 68z"/>
<path style="fill:#0ea140; stroke:none;" d="M234 68L235 69L234 68z"/>
<path style="fill:#efe134; stroke:none;" d="M103 70L104 71L103 70z"/>
<path style="fill:#ab412c; stroke:none;" d="M176 70L177 71L176 70z"/>
<path style="fill:#efe134; stroke:none;" d="M296 70L297 71L296 70z"/>
<path style="fill:#0ea140; stroke:none;" d="M164 71L165 72L164 71M169 71L170 72L169 71z"/>
<path style="fill:#f8fcf9; stroke:none;" d="M172 71L173 72L172 71z"/>
<path style="fill:#0ea140; stroke:none;" d="M239 72L240 73L239 72z"/>
<path style="fill:#efe134; stroke:none;" d="M299 72L300 73L299 72z"/>
<path style="fill:#0ea140; stroke:none;" d="M230 73L231 74L230 73M229 74L230 75L229 74z"/>
<path style="fill:#efe134; stroke:none;" d="M96 75L97 76L96 75z"/>
<path style="fill:#ab412c; stroke:none;" d="M161 75L162 76L161 75z"/>
<path style="fill:#0ea140; stroke:none;" d="M172 75L173 76L172 75z"/>
<path style="fill:#efe134; stroke:none;" d="M303 75L304 76L303 75z"/>
<path style="fill:#21445d; stroke:none;" d="M151 91L150 85C157.082 90.4201 163.881 99.628 167 108L175 101C167.421 96.9419 161.48 86.1936 157 79L163 82C159.894 71.331 141.939 83.4509 151 91z"/>
<path style="fill:#f8fcf9; stroke:none;" d="M239 76L240 77L239 76z"/>
<path style="fill:#ab412c; stroke:none;" d="M244 76L245 77L244 76z"/>
<path style="fill:#0ea140; stroke:none;" d="M156 77L157 78L156 77M237 77L238 78L237 77M240.333 77.6667L240.667 78.3333L240.333 77.6667M177 78L178 79L177 78M181 78L182 79L181 78z"/>
<path style="fill:#ab412c; stroke:none;" d="M226 78L227 79L226 78M236 78L237 79L236 78z"/>
<path style="fill:#0ea140; stroke:none;" d="M157.333 79.6667L157.667 80.3333L157.333 79.6667M166 79L167 80L166 79M175.667 79.3333L176.333 79.6667L175.667 79.3333M225 79L226 80L225 79z"/>
<path style="fill:#efe134; stroke:none;" d="M89 80L90 81L89 80z"/>
<path style="fill:#0ea140; stroke:none;" d="M152 80L153 81L152 80z"/>
<path style="fill:#f8fcf9; stroke:none;" d="M158 80L160 82L158 80z"/>
<path style="fill:#0ea140; stroke:none;" d="M159 80L160 81L159 80z"/>
<path style="fill:#ab412c; stroke:none;" d="M163.333 80.6667L163.667 81.3333L163.333 80.6667z"/>
<path style="fill:#efe134; stroke:none;" d="M310 80L311 81L310 80M158 81L159 82L158 81z"/>
<path style="fill:#0ea140; stroke:none;" d="M177 81L178 82L177 81z"/>
<path style="fill:#f8fcf9; stroke:none;" d="M178 81L179 82L178 81z"/>
<path style="fill:#0ea140; stroke:none;" d="M180 81L181 82L180 81M182 81L183 82L182 81M239 81L240 82L239 81z"/>
<path style="fill:#ab412c; stroke:none;" d="M246 81L247 82L246 81z"/>
<path style="fill:#21445d; stroke:none;" d="M233 109L234 99L227 107C229.483 108.522 232.101 111.143 235.039 111.632C247.036 113.629 247.361 91.1864 250 84L251 84L252 94L257 86C255.338 84.7243 253.621 83.0461 251.71 82.1497C237.604 75.535 240.16 105.065 233 109z"/>
<path style="fill:#ab412c; stroke:none;" d="M251 81L252 82L251 81z"/>
<path style="fill:#0ea140; stroke:none;" d="M233 82L234 83L233 82z"/>
<path style="fill:#efe134; stroke:none;" d="M85 83L86 84L85 83z"/>
<path style="fill:#ab412c; stroke:none;" d="M148 83L149 84L148 83M169 83L170 84L169 83z"/>
<path style="fill:#0ea140; stroke:none;" d="M178 83L179 84L178 83z"/>
<path style="fill:#ab412c; stroke:none;" d="M222 83L223 84L222 83z"/>
<path style="fill:#0ea140; stroke:none;" d="M232 83L233 84L232 83z"/>
<path style="fill:#f8fcf9; stroke:none;" d="M242 83L243 84L242 83z"/>
<path style="fill:#0ea140; stroke:none;" d="M243 83L244 84L243 83z"/>
<path style="fill:#ab412c; stroke:none;" d="M253 83L254 84L253 83z"/>
<path style="fill:#efe134; stroke:none;" d="M314 83L315 84L314 83z"/>
<path style="fill:#0ea140; stroke:none;" d="M187 84L188 85L187 84M221 84L222 85L221 84z"/>
<path style="fill:#f8fcf9; stroke:none;" d="M232 84L234 86L232 84z"/>
<path style="fill:#0ea140; stroke:none;" d="M236 84L237 85L236 84M242 84L243 85L242 84M250 84L249 86L250 84M146 85L147 86L146 85z"/>
<path style="fill:#f8fcf9; stroke:none;" d="M150 85L152 87L150 85z"/>
<path style="fill:#efe134; stroke:none;" d="M151 85L152 86L151 85M232 85L233 86L232 85z"/>
<path style="fill:#0ea140; stroke:none;" d="M234 85L235 86L234 85z"/>
<path style="fill:#ab412c; stroke:none;" d="M237.333 85.6667L237.667 86.3333L237.333 85.6667z"/>
<path style="fill:#f8fcf9; stroke:none;" d="M250 85L251 86L250 85z"/>
<path style="fill:#ab412c; stroke:none;" d="M256 85L257 86L256 85z"/>
<path style="fill:#efe134; stroke:none;" d="M81 86L82 87L81 86z"/>
<path style="fill:#0ea140; stroke:none;" d="M150 86L151 87L150 86z"/>
<path style="fill:#efe134; stroke:none;" d="M318 86L319 87L318 86z"/>
<path style="fill:#ab412c; stroke:none;" d="M153 87L154 88L153 87z"/>
<path style="fill:#0ea140; stroke:none;" d="M172 87L173 88L172 87M181 87L182 88L181 87M229.667 87.3333L230.333 87.6667L229.667 87.3333M248 87L249 88L248 87z"/>
<path style="fill:#efe134; stroke:none;" d="M78 88L79 89L78 88z"/>
<path style="fill:#ab412c; stroke:none;" d="M151 88L152 89L151 88z"/>
<path style="fill:#0ea140; stroke:none;" d="M163 88L164 89L163 88z"/>
<path style="fill:#ab412c; stroke:none;" d="M186 88L187 89L186 88M218 88L219 89L218 88M228 88L229 89L228 88z"/>
<path style="fill:#0ea140; stroke:none;" d="M231 88L232 89L231 88z"/>
<path style="fill:#ab412c; stroke:none;" d="M256 88L257 89L256 88z"/>
<path style="fill:#efe134; stroke:none;" d="M321 88L322 89L321 88z"/>
<path style="fill:#0ea140; stroke:none;" d="M190 89L191 90L190 89M217 89L218 90L217 89z"/>
<path style="fill:#ab412c; stroke:none;" d="M251 89L252 90L251 89z"/>
<path style="fill:#efe134; stroke:none;" d="M322 89L323 90L322 89z"/>
<path style="fill:#0ea140; stroke:none;" d="M141.667 90.3333L142.333 90.6667L141.667 90.3333M149 90L150 91L149 90M151 90L152 91L151 90M234 90L235 91L234 90z"/>
<path style="fill:#ab412c; stroke:none;" d="M239 90L240 91L239 90z"/>
<path style="fill:#0ea140; stroke:none;" d="M255 90L256 91L255 90z"/>
<path style="fill:#21445d; stroke:none;" d="M257 97L262 93L263 94L242 118L242 119L251 125C254.394 115.229 263.083 106.515 270 99L269 107C280.595 97.2492 256.282 84.7316 257 97z"/>
<path style="fill:#efe134; stroke:none;" d="M74 91L75 92L74 91z"/>
<path style="fill:#ab412c; stroke:none;" d="M138 91L139 92L138 91z"/>
<path style="fill:#21445d; stroke:none;" d="M129 98L129 100C136.414 105.769 143.885 115.084 147 124L155 119L146 108C153.967 108.347 154.174 117.655 163 113L163 111C158.88 107.42 155.899 102.913 150 104C154.186 86.2013 137.629 92.6272 129 98z"/>
<path style="fill:#ab412c; stroke:none;" d="M146 91L147 92L146 91M156 91L157 92L156 91M165 91L166 92L165 91z"/>
<path style="fill:#0ea140; stroke:none;" d="M175 91L176 92L175 91M184 91L185 92L184 91z"/>
<path style="fill:#f8fcf9; stroke:none;" d="M185 91L186 92L185 91z"/>
<path style="fill:#0ea140; stroke:none;" d="M186 91L187 92L186 91z"/>
<path style="fill:#ab412c; stroke:none;" d="M190 91L191 92L190 91M233 91L234 92L233 91z"/>
<path style="fill:#efe134; stroke:none;" d="M325 91L326 92L325 91z"/>
<path style="fill:#ab412c; stroke:none;" d="M157 92L158 93L157 92z"/>
<path style="fill:#0ea140; stroke:none;" d="M166 92L167 93L166 92z"/>
<path style="fill:#ab412c; stroke:none;" d="M213 92L214 93L213 92z"/>
<path style="fill:#0ea140; stroke:none;" d="M225 92L226 93L225 92z"/>
<path style="fill:#ab412c; stroke:none;" d="M231.667 92.3333L232.333 92.6667L231.667 92.3333z"/>
<path style="fill:#0ea140; stroke:none;" d="M247.333 92.6667L247.667 93.3333L247.333 92.6667M257 92L258 93L257 92z"/>
<path style="fill:#ab412c; stroke:none;" d="M264 92L265 93L264 92z"/>
<path style="fill:#0ea140; stroke:none;" d="M224 93L225 94L224 93M253 93L254 94L253 93M256 93L257 94L256 93M261 93L262 94L261 93z"/>
<path style="fill:#efe134; stroke:none;" d="M70 94L71 95L70 94z"/>
<path style="fill:#0ea140; stroke:none;" d="M134 94L135 95L134 94M138.667 94.3333L139.333 94.6667L138.667 94.3333z"/>
<path style="fill:#efe134; stroke:none;" d="M329 94L330 95L329 94z"/>
<path style="fill:#f8fcf9; stroke:none;" d="M137 95L138 96L137 95z"/>
<path style="fill:#efe134; stroke:none;" d="M138 95C139.21 99.653 141.668 102.888 146 105L141 95L138 95z"/>
<path style="fill:#0ea140; stroke:none;" d="M159 95L160 96L159 95z"/>
<path style="fill:#ab412c; stroke:none;" d="M168 95L169 96L168 95z"/>
<path style="fill:#0ea140; stroke:none;" d="M178 95L179 96L178 95M213 95L214 96L213 95M238.333 95.6667L238.667 96.3333L238.333 95.6667z"/>
<path style="fill:#ab412c; stroke:none;" d="M255 95L256 96L255 95z"/>
<path style="fill:#0ea140; stroke:none;" d="M131 96L132 97L131 96M141 96L142 97L141 96M160 96L161 97L160 96M214 96L215 97L214 96M256 96L257 97L256 96M269 96L270 97L269 96z"/>
<path style="fill:#efe134; stroke:none;" d="M66 97L67 98L66 97z"/>
<path style="fill:#ab412c; stroke:none;" d="M130 97L131 98L130 97z"/>
<path style="fill:#0ea140; stroke:none;" d="M142 97L143 98L142 97z"/>
<path style="fill:#ab412c; stroke:none;" d="M178.333 97.6667L178.667 98.3333L178.333 97.6667z"/>
<path style="fill:#0ea140; stroke:none;" d="M182 97L183 98L182 97M221 97L222 98L221 97M226 97L227 98L226 97z"/>
<path style="fill:#ab412c; stroke:none;" d="M228 97L229 98L228 97z"/>
<path style="fill:#0ea140; stroke:none;" d="M260 97L261 98L260 97z"/>
<path style="fill:#efe134; stroke:none;" d="M333 97L334 98L333 97z"/>
<path style="fill:#f8fcf9; stroke:none;" d="M221 98L222 99L221 98z"/>
<path style="fill:#ab412c; stroke:none;" d="M229 98L230 99L229 98z"/>
<path style="fill:#0ea140; stroke:none;" d="M232 98L233 99L232 98M246.333 98.6667L246.667 99.3333L246.333 98.6667M259 98L260 99L259 98z"/>
<path style="fill:#efe134; stroke:none;" d="M63 99L64 100L63 99z"/>
<path style="fill:#0ea140; stroke:none;" d="M162 99L163 100L162 99M222.667 99.3333L223.333 99.6667L222.667 99.3333z"/>
<path style="fill:#ab412c; stroke:none;" d="M231 99L232 100L231 99z"/>
<path style="fill:#0ea140; stroke:none;" d="M269 99L270 100L269 99z"/>
<path style="fill:#efe134; stroke:none;" d="M336 99L337 100L336 99z"/>
<path style="fill:#ab412c; stroke:none;" d="M129 100L130 101L129 100M140 100L141 101L140 100z"/>
<path style="fill:#0ea140; stroke:none;" d="M163 100L164 101L163 100M172.667 100.333L173.333 100.667L172.667 100.333M219 100L220 101L219 100z"/>
<path style="fill:#efe134; stroke:none;" d="M268.333 100.667L268.667 101.333L268.333 100.667z"/>
<path style="fill:#f8fcf9; stroke:none;" d="M269 100L270 101L269 100M131 101L132 102L131 101z"/>
<path style="fill:#ab412c; stroke:none;" d="M145 101L146 102L145 101z"/>
<path style="fill:#0ea140; stroke:none;" d="M220 101L221 102L220 101M226 101L227 102L226 101M267 101L268 102L267 101M269 101L270 102L269 101z"/>
<path style="fill:#efe134; stroke:none;" d="M59 102L60 103L59 102M150 102L151 103L150 102z"/>
<path style="fill:#f8fcf9; stroke:none;" d="M151.667 102.333L152.333 102.667L151.667 102.333z"/>
<path style="fill:#ab412c; stroke:none;" d="M175 102L176 103L175 102M225 102L226 103L225 102z"/>
<path style="fill:#0ea140; stroke:none;" d="M237 102L238 103L237 102M256 102L257 103L256 102M266 102L267 103L266 102z"/>
<path style="fill:#f8fcf9; stroke:none;" d="M268 102L269 103L268 102z"/>
<path style="fill:#21445d; stroke:none;" d="M275 102C272.62 112.013 259.916 117.935 258.528 127.999C257.661 134.281 265.171 137.87 269.985 134.526C276.879 129.739 280.969 116.393 290 116C284.999 124.003 278.16 134.086 270 139C271.466 141.896 273.402 143.857 276.005 145.865C296.504 161.681 315.209 114.068 289 115L284 110C281.797 118.088 272.579 129.456 265 133C267.941 124.278 276.805 114.598 284 109L284 108L275 102z"/>
<path style="fill:#ab412c; stroke:none;" d="M276 102L277 103L276 102z"/>
<path style="fill:#efe134; stroke:none;" d="M340 102L341 103L340 102z"/>
<path style="fill:#0ea140; stroke:none;" d="M150 103L151 104L150 103z"/>
<path style="fill:#ab412c; stroke:none;" d="M154 103L155 104L154 103M165 103L166 104L165 103M223.667 103.333L224.333 103.667L223.667 103.333z"/>
<path style="fill:#0ea140; stroke:none;" d="M233 103L234 104L233 103M255 103L256 104L255 103z"/>
<path style="fill:#f8fcf9; stroke:none;" d="M266 103L267 104L266 103z"/>
<path style="fill:#0ea140; stroke:none;" d="M272 103L273 104L272 103M274 103L274 106L275 106L274 103z"/>
<path style="fill:#21445d; stroke:none;" d="M121.044 104.782C107.27 109.674 124.27 136.554 135.981 132.242C149.889 127.122 132.944 100.556 121.044 104.782z"/>
<path style="fill:#0ea140; stroke:none;" d="M125.667 104.333L126.333 104.667L125.667 104.333M134 104L135 105L134 104M143 104L144 105L143 104M156 104L157 105L156 104M199 104.955C191.43 106.306 182.1 116.099 176 120.63C158.468 133.654 140.99 146.959 123 159.341C117.211 163.325 101.718 171.151 99.7878 178.171C98.3989 183.222 103.215 192.13 104.717 197C109.983 214.081 115.791 231.005 121.33 248C125.128 259.651 128.925 271.324 132.656 283C133.836 286.692 134.405 293.499 137.702 295.972C143.348 300.207 161.025 297 168 297L232 297C240.595 297 252.545 299.168 260.775 296.682C265.241 295.333 265.848 287.788 267.025 284C271.076 270.966 275.354 257.949 279.667 245C284.986 229.026 290.014 212.973 295.333 197C296.964 192.104 301.666 183.231 300.223 178.09C298.43 171.699 285.194 165.175 280 161.424C260.939 147.661 241.936 133.819 223 119.884C217.835 116.083 205.657 103.767 199 104.955M228 104L229 105L228 104z"/>
<path style="fill:#f8fcf9; stroke:none;" d="M236 104L237 105L236 104z"/>
<path style="fill:#efe134; stroke:none;" d="M55 105L56 106L55 105z"/>
<path style="fill:#0ea140; stroke:none;" d="M128 105L129 106L128 105M144.667 105.333L145.333 105.667L144.667 105.333M157 105L158 106L157 105M171 105L172 106L171 105z"/>
<path style="fill:#ab412c; stroke:none;" d="M244 105L245 106L244 105z"/>
<path style="fill:#0ea140; stroke:none;" d="M280 105L281 106L280 105z"/>
<path style="fill:#efe134; stroke:none;" d="M344 105L345 106L344 105z"/>
<path style="fill:#0ea140; stroke:none;" d="M281 106L282 107L281 106z"/>
<path style="fill:#efe134; stroke:none;" d="M52 107L53 108L52 107M120 107C121.596 115.018 129.781 124.864 136 130C136.279 122.509 126.512 110.307 120 107z"/>
<path style="fill:#ab412c; stroke:none;" d="M131 107L132 108L131 107z"/>
<path style="fill:#f8fcf9; stroke:none;" d="M147.667 107.333L148.333 107.667L147.667 107.333z"/>
<path style="fill:#0ea140; stroke:none;" d="M236 107L237 108L236 107z"/>
<path style="fill:#ab412c; stroke:none;" d="M252 107L253 108L252 107z"/>
<path style="fill:#0ea140; stroke:none;" d="M262 107L263 108L262 107z"/>
<path style="fill:#efe134; stroke:none;" d="M347 107L348 108L347 107z"/>
<path style="fill:#ab412c; stroke:none;" d="M116 108L117 109L116 108z"/>
<path style="fill:#0ea140; stroke:none;" d="M137 108L138 109L137 108M146 108L147 109L146 108M230 108L231 109L230 108M235 108L236 109L235 108z"/>
<path style="fill:#ab412c; stroke:none;" d="M242 108L243 109L242 108z"/>
<path style="fill:#0ea140; stroke:none;" d="M251 108L252 109L251 108M272 108L273 109L272 108M133 109L134 110L133 109M147 109L148 110L147 109z"/>
<path style="fill:#ab412c; stroke:none;" d="M151 109L152 110L151 109z"/>
<path style="fill:#0ea140; stroke:none;" d="M160 109L161 110L160 109M271 109L272 110L271 109M283 109L284 110L283 109z"/>
<path style="fill:#efe134; stroke:none;" d="M48 110L49 111L48 110z"/>
<path style="fill:#0ea140; stroke:none;" d="M120 110L121 111L120 110M124 110L125 111L124 110M134 110L135 111L134 110z"/>
<path style="fill:#ab412c; stroke:none;" d="M162 110L163 111L162 110z"/>
<path style="fill:#0ea140; stroke:none;" d="M240 110L241 111L240 110z"/>
<path style="fill:#efe134; stroke:none;" d="M265 133C272.664 130.752 282.45 117.708 284 110C276.429 112.222 266.965 125.457 265 133M351 110L352 111L351 110z"/>
<path style="fill:#0ea140; stroke:none;" d="M125 111L126 112L125 111M135 111L136 112L135 111M140 112L141 113L140 112z"/>
<path style="fill:#ab412c; stroke:none;" d="M149 112L150 113L149 112M258 112L259 113L258 112z"/>
<path style="fill:#efe134; stroke:none;" d="M44 113L45 114L44 113z"/>
<path style="fill:#ab412c; stroke:none;" d="M150 113L151 114L150 113z"/>
<path style="fill:#f8fcf9; stroke:none;" d="M153 113L155 115L153 113z"/>
<path style="fill:#0ea140; stroke:none;" d="M154 113L155 114L154 113M161 113L162 114L161 113M247 113L248 114L247 113M257 113L258 114L257 113z"/>
<path style="fill:#ab412c; stroke:none;" d="M268 113L269 114L268 113z"/>
<path style="fill:#0ea140; stroke:none;" d="M278 113L279 114L278 113z"/>
<path style="fill:#ab412c; stroke:none;" d="M283 113L284 114L283 113z"/>
<path style="fill:#0ea140; stroke:none;" d="M289 113L290 114L289 113z"/>
<path style="fill:#efe134; stroke:none;" d="M355 113L356 114L355 113z"/>
<path style="fill:#0ea140; stroke:none;" d="M123 114L124 115L123 114M127 114L128 115L127 114z"/>
<path style="fill:#efe134; stroke:none;" d="M289 114L290 115L289 114z"/>
<path style="fill:#0ea140; stroke:none;" d="M128 115L129 116L128 115z"/>
<path style="fill:#ab412c; stroke:none;" d="M156 115L157 116L156 115z"/>
<path style="fill:#efe134; stroke:none;" d="M40 116L41 117L40 116z"/>
<path style="fill:#0ea140; stroke:none;" d="M116 116L117 117L116 116M143 116L144 117L143 116M153 116L154 117L153 116M243.667 116.333L244.333 116.667L243.667 116.333M289.333 116.667L289.667 117.333L289.333 116.667M294 116L295 117L294 116z"/>
<path style="fill:#efe134; stroke:none;" d="M359 116L360 117L359 116z"/>
<path style="fill:#21445d; stroke:none;" d="M94 126C101.317 130.592 110.012 141.539 112 150L121 143L113 137C119.059 130.59 120.697 117.265 108 117.113C102.312 117.045 97.2222 121.799 94 126z"/>
<path style="fill:#0ea140; stroke:none;" d="M139 117L140 118L139 117M144 117L145 118L144 117z"/>
<path style="fill:#ab412c; stroke:none;" d="M154 117L155 118L154 117M242 117L243 118L242 117z"/>
<path style="fill:#0ea140; stroke:none;" d="M254 117L255 118L254 117M275 117L276 118L275 117z"/>
<path style="fill:#efe134; stroke:none;" d="M37 118L38 119L37 118z"/>
<path style="fill:#ab412c; stroke:none;" d="M102 118L103 119L102 118z"/>
<path style="fill:#0ea140; stroke:none;" d="M113 118L114 119L113 118M130 118L131 119L130 118M264 118L265 119L264 118M274 118L275 119L274 118M279 118L280 119L279 118z"/>
<path style="fill:#efe134; stroke:none;" d="M362 118L363 119L362 118z"/>
<path style="fill:#0ea140; stroke:none;" d="M114 119L115 120L114 119M131 119L132 120L131 119z"/>
<path style="fill:#ab412c; stroke:none;" d="M153 119L154 120L153 119z"/>
<path style="fill:#0ea140; stroke:none;" d="M263 119L264 120L263 119M103.667 120.333L104.333 120.667L103.667 120.333M115 120L116 121L115 120z"/>
<path style="fill:#efe134; stroke:none;" d="M114 182C119.691 206.598 129.347 231.042 137.333 255C139.815 262.446 141.282 276.746 146.843 282.397C149.53 285.126 155.53 284 159 284L192 284L236 284C240.377 284 248.756 285.594 252.49 282.972C258.044 279.072 259.903 263.291 262 257C270.204 232.383 280.153 207.272 286 182C264.478 168.598 244.647 151.747 224 137C218.221 132.872 207.328 121.026 200 121.026C192.858 121.026 181.606 132.752 176 136.884C155.454 152.028 135.105 167.644 114 182z"/>
<path style="fill:#ab412c; stroke:none;" d="M244 120L245 121L244 120z"/>
<path style="fill:#0ea140; stroke:none;" d="M299 120L300 121L299 120z"/>
<path style="fill:#efe134; stroke:none;" d="M33 121L34 122L33 121z"/>
<path style="fill:#ab412c; stroke:none;" d="M98 121L99 122L98 121z"/>
<path style="fill:#efe134; stroke:none;" d="M102 121L102 122L111 134C114.619 128.536 107.318 121.858 102 121z"/>
<path style="fill:#ab412c; stroke:none;" d="M245 121L246 122L245 121z"/>
<path style="fill:#0ea140; stroke:none;" d="M286 121L287 122L286 121M296 121L297 122L296 121M300 121L301 122L300 121z"/>
<path style="fill:#efe134; stroke:none;" d="M366 121L367 122L366 121z"/>
<path style="fill:#f8fcf9; stroke:none;" d="M103 122L104 123L103 122z"/>
<path style="fill:#0ea140; stroke:none;" d="M119 122L120 123L119 122M129 122L130 123L129 122M133 122L134 123L133 122z"/>
<path style="fill:#ab412c; stroke:none;" d="M146 122L147 123L146 122M251 122L252 123L251 122M276 122L277 123L276 122z"/>
<path style="fill:#0ea140; stroke:none;" d="M285 122L286 123L285 122z"/>
<path style="fill:#efe134; stroke:none;" d="M280 146C287.114 140.544 296.221 130.963 298 122C291.322 125.383 279.997 138.337 280 146z"/>
<path style="fill:#0ea140; stroke:none;" d="M301 122L302 123L301 122z"/>
<path style="fill:#efe134; stroke:none;" d="M30 123L31 124L30 123z"/>
<path style="fill:#0ea140; stroke:none;" d="M103 123L104 124L103 123M107 123L108 124L107 123M117 123L118 124L117 123z"/>
<path style="fill:#ab412c; stroke:none;" d="M130 123L131 124L130 123z"/>
<path style="fill:#0ea140; stroke:none;" d="M260 123L261 124L260 123M270 123L271 124L270 123z"/>
<path style="fill:#ab412c; stroke:none;" d="M275 123L276 124L275 123z"/>
<path style="fill:#0ea140; stroke:none;" d="M279 123L280 124L279 123z"/>
<path style="fill:#f8fcf9; stroke:none;" d="M297.333 123.667L297.667 124.333L297.333 123.667z"/>
<path style="fill:#efe134; stroke:none;" d="M369 123L370 124L369 123z"/>
<path style="fill:#ab412c; stroke:none;" d="M94 124L95 125L94 124M249 124L250 125L249 124z"/>
<path style="fill:#efe134; stroke:none;" d="M370 124L371 125L370 124z"/>
<path style="fill:#0ea140; stroke:none;" d="M118 125L119 126L118 125M293 125L294 126L293 125z"/>
<path style="fill:#efe134; stroke:none;" d="M26 126L27 127L26 126z"/>
<path style="fill:#0ea140; stroke:none;" d="M122 126L123 127L122 126z"/>
<path style="fill:#ab412c; stroke:none;" d="M136 126L137 127L136 126z"/>
<path style="fill:#0ea140; stroke:none;" d="M258 126L259 127L258 126z"/>
<path style="fill:#ab412c; stroke:none;" d="M282 126L283 127L282 126z"/>
<path style="fill:#0ea140; stroke:none;" d="M292 126L293 127L292 126z"/>
<path style="fill:#efe134; stroke:none;" d="M373 126L374 127L373 126z"/>
<path style="fill:#ab412c; stroke:none;" d="M90 127L91 128L90 127z"/>
<path style="fill:#21445d; stroke:none;" d="M81 134L81 136C88.4515 141.798 95.7822 151.083 99 160C103.764 157.286 114.236 150.833 106 146L106 153L97 142L102 142L97 136L97 140L90 130L96 132C92.0211 124.495 86.0543 130.853 81 134z"/>
<path style="fill:#ab412c; stroke:none;" d="M92 127L93 128L92 127z"/>
<path style="fill:#f8fcf9; stroke:none;" d="M96 127L97 128L96 127z"/>
<path style="fill:#0ea140; stroke:none;" d="M97 127L98 128L97 127M106 127L107 128L106 127M123 127L124 128L123 127z"/>
<path style="fill:#f8fcf9; stroke:none;" d="M136 127L137 128L136 127z"/>
<path style="fill:#0ea140; stroke:none;" d="M267 127L268 128L267 127z"/>
<path style="fill:#ab412c; stroke:none;" d="M272 127L273 128L272 127z"/>
<path style="fill:#0ea140; stroke:none;" d="M281 127L282 128L281 127z"/>
<path style="fill:#ab412c; stroke:none;" d="M107 128L108 129L107 128z"/>
<path style="fill:#0ea140; stroke:none;" d="M111 128L112 129L111 128z"/>
<path style="fill:#ab412c; stroke:none;" d="M124 128L125 129L124 128z"/>
<path style="fill:#0ea140; stroke:none;" d="M137 128L138 129L137 128M266 128L267 129L266 128M271 128L272 129L271 128M275 128L276 129L275 128M295 128L296 129L295 128z"/>
<path style="fill:#efe134; stroke:none;" d="M22 129L23 130L22 129z"/>
<path style="fill:#0ea140; stroke:none;" d="M87 129L88 130L87 129M125 129L126 130L125 129z"/>
<path style="fill:#f8fcf9; stroke:none;" d="M136 129L137 130L136 129z"/>
<path style="fill:#0ea140; stroke:none;" d="M270 129L271 130L270 129z"/>
<path style="fill:#21445d; stroke:none;" d="M308 129C306.7 137.581 295.75 150.27 288 154L297 162C300.522 154.025 309.329 139.545 318 137L308 129z"/>
<path style="fill:#ab412c; stroke:none;" d="M310 129L311 130L310 129z"/>
<path style="fill:#efe134; stroke:none;" d="M377 129L378 130L377 129z"/>
<path style="fill:#0ea140; stroke:none;" d="M86 130L87 131L86 130M90 130L91 131L90 130M289 130L290 131L289 130z"/>
<path style="fill:#f8fcf9; stroke:none;" d="M91 131L92 132L91 131z"/>
<path style="fill:#0ea140; stroke:none;" d="M92 131L93 132L92 131z"/>
<path style="fill:#ab412c; stroke:none;" d="M100 131L101 132L100 131z"/>
<path style="fill:#0ea140; stroke:none;" d="M109 131L110 132L109 131z"/>
<path style="fill:#ab412c; stroke:none;" d="M113 131L114 132L113 131z"/>
<path style="fill:#0ea140; stroke:none;" d="M128 131L129 132L128 131z"/>
<path style="fill:#f8fcf9; stroke:none;" d="M265 131L266 132L265 131z"/>
<path style="fill:#0ea140; stroke:none;" d="M278 131L279 132L278 131M288 131L289 132L288 131M302 131L303 132L302 131z"/>
<path style="fill:#efe134; stroke:none;" d="M18 132L19 133L18 132z"/>
<path style="fill:#0ea140; stroke:none;" d="M89 132L90 133L89 132M94 132L95 133L94 132M113 132L114 133L113 132M117 132L118 133L117 132M136 132L137 133L136 132z"/>
<path style="fill:#efe134; stroke:none;" d="M381 132L382 133L381 132z"/>
<path style="fill:#0ea140; stroke:none;" d="M82 133L83 134L82 133z"/>
<path style="fill:#f8fcf9; stroke:none;" d="M112 133L113 134L112 133z"/>
<path style="fill:#ab412c; stroke:none;" d="M116 133L117 134L116 133z"/>
<path style="fill:#0ea140; stroke:none;" d="M271 133L272 134L271 133M291 133L292 134L291 133z"/>
<path style="fill:#ab412c; stroke:none;" d="M307 133L308 134L307 133M315 133L316 134L315 133M115 134L116 135L115 134z"/>
<path style="fill:#0ea140; stroke:none;" d="M270 134L271 135L270 134M290 134L291 135L290 134z"/>
<path style="fill:#ab412c; stroke:none;" d="M80 135L81 136L80 135M97.6667 135.333L98.3333 135.667L97.6667 135.333z"/>
<path style="fill:#0ea140; stroke:none;" d="M103 135L104 136L103 135M114 135L115 136L114 135M262 135L263 136L262 135M269 135L270 136L269 135M285 135L286 136L285 135z"/>
<path style="fill:#efe134; stroke:none;" d="M385 135L386 136L385 135z"/>
<path style="fill:#ab412c; stroke:none;" d="M81 136L82 137L81 136M92 136L93 137L92 136M96 136L97 137L96 136z"/>
<path style="fill:#0ea140; stroke:none;" d="M113 136L114 137L113 136z"/>
<path style="fill:#ab412c; stroke:none;" d="M265 136L266 137L265 136z"/>
<path style="fill:#0ea140; stroke:none;" d="M274 136L275 137L274 136z"/>
<path style="fill:#ab412c; stroke:none;" d="M284 136L285 137L284 136z"/>
<path style="fill:#efe134; stroke:none;" d="M11 137L12 138L11 137z"/>
<path style="fill:#0ea140; stroke:none;" d="M273 137L274 138L273 137M299 137L300 138L299 137M314 137L315 138L314 137M316 137L317 138L316 137z"/>
<path style="fill:#efe134; stroke:none;" d="M388 137L389 138L388 137z"/>
<path style="fill:#f8fcf9; stroke:none;" d="M96 138L95 140L96 138z"/>
<path style="fill:#ab412c; stroke:none;" d="M270 138L271 139L270 138M287 138L288 139L287 138M303 138L304 139L303 138z"/>
<path style="fill:#0ea140; stroke:none;" d="M313 138L314 139L313 138z"/>
<path style="fill:#efe134; stroke:none;" d="M96 139L97 140L96 139z"/>
<path style="fill:#0ea140; stroke:none;" d="M101 139L102 140L101 139M106 139L107 140L106 139z"/>
<path style="fill:#ab412c; stroke:none;" d="M115 139L116 140L115 139z"/>
<path style="fill:#0ea140; stroke:none;" d="M286 139L287 140L286 139z"/>
<path style="fill:#efe134; stroke:none;" d="M7 140L8 141L7 140z"/>
<path style="fill:#ab412c; stroke:none;" d="M73 140L74 141L73 140z"/>
<path style="fill:#21445d; stroke:none;" d="M64 150C71.0773 153.594 79.4505 165.214 81 173C84.95 171.123 89.5192 168.658 91.9066 164.826C101.015 150.211 70.6722 128.171 64 150z"/>
<path style="fill:#0ea140; stroke:none;" d="M86 140L87 141L86 140M107 140L108 141L107 140M269 140L270 141L269 140z"/>
<path style="fill:#efe134; stroke:none;" d="M392 140L393 141L392 140z"/>
<path style="fill:#0ea140; stroke:none;" d="M81 141L82 142L81 141M99 141L100 142L99 141z"/>
<path style="fill:#ab412c; stroke:none;" d="M102 141L103 142L102 141z"/>
<path style="fill:#0ea140; stroke:none;" d="M280 141L281 142L280 141M296 141L297 142L296 141M320 141L321 142L320 141z"/>
<path style="fill:#21445d; stroke:none;" d="M321 141.576C312.953 143.029 305.954 151.459 303.789 159C301.85 165.757 305.105 172.769 313 171.771C320.911 170.771 328.711 161.426 330.468 154C332.017 147.449 328.812 140.165 321 141.576z"/>
<path style="fill:#ab412c; stroke:none;" d="M325 141L326 142L325 141M70 142L71 143L70 142M101 142L102 143L101 142z"/>
<path style="fill:#0ea140; stroke:none;" d="M295 142L296 143L295 142z"/>
<path style="fill:#ab412c; stroke:none;" d="M310 142L311 143L310 142z"/>
<path style="fill:#0ea140; stroke:none;" d="M317 142L318 143L317 142z"/>
<path style="fill:#ab412c; stroke:none;" d="M327 142L328 143L327 142z"/>
<path style="fill:#efe134; stroke:none;" d="M3 143L4 144L3 143z"/>
<path style="fill:#ab412c; stroke:none;" d="M109 143L110 144L109 143z"/>
<path style="fill:#0ea140; stroke:none;" d="M273 143L274 144L273 143M283 143L284 144L283 143M299 143L300 144L299 143z"/>
<path style="fill:#ab412c; stroke:none;" d="M67 144L68 145L67 144z"/>
<path style="fill:#0ea140; stroke:none;" d="M71 144L72 145L71 144z"/>
<path style="fill:#f8fcf9; stroke:none;" d="M72 144L73 145L72 144z"/>
<path style="fill:#efe134; stroke:none;" d="M72 145C75.0988 150.439 82.0181 163.473 89 163C85.5544 157.467 79.0435 144.89 72 145z"/>
<path style="fill:#0ea140; stroke:none;" d="M89 144L90 145L89 144M98 144L99 145L98 144M274 144L275 145L274 144M278 144L279 145L278 144z"/>
<path style="fill:#f8fcf9; stroke:none;" d="M279 144L280 145L279 144M281 144L282 145L281 144z"/>
<path style="fill:#0ea140; stroke:none;" d="M282 144L283 145L282 144M293 144L294 145L293 144z"/>
<path style="fill:#ab412c; stroke:none;" d="M298 144L299 145L298 144z"/>
<path style="fill:#0ea140; stroke:none;" d="M314 144L315 145L314 144M325 144L326 145L325 144z"/>
<path style="fill:#ab412c; stroke:none;" d="M326 144L327 145L326 144z"/>
<path style="fill:#efe134; stroke:none;" d="M0 145L1 146L0 145z"/>
<path style="fill:#ab412c; stroke:none;" d="M66 145L67 146L66 145z"/>
<path style="fill:#0ea140; stroke:none;" d="M99 145L100 146L99 145z"/>
<path style="fill:#ab412c; stroke:none;" d="M106.667 145.333L107.333 145.667L106.667 145.333z"/>
<path style="fill:#0ea140; stroke:none;" d="M275 145L276 146L275 145z"/>
<path style="fill:#ab412c; stroke:none;" d="M279 145L280 146L279 145z"/>
<path style="fill:#0ea140; stroke:none;" d="M292 145L293 146L292 145z"/>
<path style="fill:#efe134; stroke:none;" d="M307 169C315.121 166.523 324.046 152.69 327 145C319.276 147.266 308.888 161.27 307 169M399 145L400 146L399 145z"/>
<path style="fill:#ab412c; stroke:none;" d="M105 146L106 147L105 146z"/>
<path style="fill:#0ea140; stroke:none;" d="M117 146L118 147L117 146z"/>
<path style="fill:#ab412c; stroke:none;" d="M291 146L292 147L291 146z"/>
<path style="fill:#f8fcf9; stroke:none;" d="M326 146L327 147L326 146z"/>
<path style="fill:#0ea140; stroke:none;" d="M73 147L74 148L73 147M77 147L78 148L77 147M326 147L327 148L326 147z"/>
<path style="fill:#ab412c; stroke:none;" d="M63 148L64 149L63 148M88 148L89 149L88 148z"/>
<path style="fill:#0ea140; stroke:none;" d="M92 148L93 149L92 148M111 148L112 149L111 148M279 148L280 149L279 148M305 148L306 149L305 148M321 148L322 149L321 148M102 149L103 150L102 149M113 149L114 150L113 149M282 149L283 150L282 149z"/>
<path style="fill:#ab412c; stroke:none;" d="M284 149L285 150L284 149z"/>
<path style="fill:#0ea140; stroke:none;" d="M294 149L295 150L294 149M320 149L321 150L320 149M106.333 150.667L106.667 151.333L106.333 150.667M308 150L309 151L308 150M67 151L68 152L67 151z"/>
<path style="fill:#ab412c; stroke:none;" d="M76 151L77 152L76 151M80 151L81 152L80 151z"/>
<path style="fill:#0ea140; stroke:none;" d="M90 151L91 152L90 151z"/>
<path style="fill:#ab412c; stroke:none;" d="M110 151L111 152L110 151z"/>
<path style="fill:#0ea140; stroke:none;" d="M307 151L308 152L307 151M323 151L324 152L323 151M95 152L96 153L95 152M109 152L110 153L109 152M302 152L303 153L302 152M290 153L291 154L290 153M301 153L302 154L301 153M317 153L318 154L317 153z"/>
<path style="fill:#f8fcf9; stroke:none;" d="M107 154L108 155L107 154z"/>
<path style="fill:#0ea140; stroke:none;" d="M316 154L317 155L316 154M330 154L331 155L330 154M70 155L71 156L70 155M79 155L80 156L79 155M83 155L84 156L83 155z"/>
<path style="fill:#ab412c; stroke:none;" d="M92 155L93 156L92 155z"/>
<path style="fill:#0ea140; stroke:none;" d="M105 155L106 156L105 155M320 155L321 156L320 155z"/>
<path style="fill:#ab412c; stroke:none;" d="M98 156L99 157L98 156M289 156L290 157L289 156z"/>
<path style="fill:#0ea140; stroke:none;" d="M304 156L305 157L304 156M319 156L320 157L319 156M290 157L291 158L290 157M298 157L299 158L298 157M93 158L94 159L93 158z"/>
<path style="fill:#ab412c; stroke:none;" d="M101 158L102 159L101 158z"/>
<path style="fill:#0ea140; stroke:none;" d="M313 158L314 159L313 158M73 159L74 160L73 159M82 159L83 160L82 159z"/>
<path style="fill:#ab412c; stroke:none;" d="M86 159L87 160L86 159z"/>
<path style="fill:#0ea140; stroke:none;" d="M303 159L304 160L303 159M312 159L313 160L312 159z"/>
<path style="fill:#ab412c; stroke:none;" d="M74 160L75 161L74 160z"/>
<path style="fill:#0ea140; stroke:none;" d="M83 160L84 161L83 160M209 160L209 161L212 161L209 160z"/>
<path style="fill:#ab412c; stroke:none;" d="M216.667 160.333L217.333 160.667L216.667 160.333z"/>
<path style="fill:#0ea140; stroke:none;" d="M294 160L295 161L294 160M327 160L328 161L327 160M93.3333 161.667L93.6667 162.333L93.3333 161.667z"/>
<path style="fill:#ab412c; stroke:none;" d="M156.333 161.667L156.667 162.333L156.333 161.667z"/>
<path style="fill:#21445d; stroke:none;" d="M157 161C158.611 169.677 159.492 180.759 156 189C162.803 189 173.982 191.843 175 183L167 187L167 175L174 178L173 170L171 170L167 173L167 163L175 167L174 161L157 161z"/>
<path style="fill:#ab412c; stroke:none;" d="M177.333 161.667L177.667 162.333L177.333 161.667z"/>
<path style="fill:#21445d; stroke:none;" d="M178 168L180 168L184 163L182 189L194 189L192 163L196 168L199 167L198 161C191.475 161 175.485 157.679 178 168z"/>
<path style="fill:#0ea140; stroke:none;" d="M206 161L207 162L206 161z"/>
<path style="fill:#21445d; stroke:none;" d="M219 183L215 183L211 187L211 163L219 169C218.699 156.601 203.608 159.737 201.479 170.001C200.41 175.158 200.761 181.739 204.419 185.852C209.222 191.253 216.768 189.353 219 183z"/>
<path style="fill:#0ea140; stroke:none;" d="M218.333 161.667L218.667 162.333L218.333 161.667z"/>
<path style="fill:#21445d; stroke:none;" d="M221 161C223.921 170.362 223.488 179.597 221 189L233 189C232.723 187.847 229.979 175.762 234.456 178.921C236.78 180.562 235.489 184.429 236.603 186.682C238.165 189.838 243.108 188.998 246 189C244.54 183.485 244.083 177.765 238 176C244.435 172.72 247.857 165.344 238.995 161.894C233.716 159.838 226.578 161 221 161z"/>
<path style="fill:#ab412c; stroke:none;" d="M238 161L239 162L238 161M297 161L298 162L297 161M315 161L316 162L315 161z"/>
<path style="fill:#f8fcf9; stroke:none;" d="M85 162L86 163L85 162z"/>
<path style="fill:#ab412c; stroke:none;" d="M205 162L206 163L205 162z"/>
<path style="fill:#0ea140; stroke:none;" d="M220 162L221 163L220 162M76 163L77 164L76 163M85 163L86 164L85 163z"/>
<path style="fill:#f8fcf9; stroke:none;" d="M88 163L87 165L89 165L88 163z"/>
<path style="fill:#0ea140; stroke:none;" d="M167 163L168 164L167 163z"/>
<path style="fill:#f8fcf9; stroke:none;" d="M182 163L183 164L182 163z"/>
<path style="fill:#0ea140; stroke:none;" d="M183 163L184 164L183 163z"/>
<path style="fill:#f8fcf9; stroke:none;" d="M193 163L194 164L193 163z"/>
<path style="fill:#0ea140; stroke:none;" d="M211 163L212 164L211 163z"/>
<path style="fill:#f8fcf9; stroke:none;" d="M219 163L220 164L219 163z"/>
<path style="fill:#0ea140; stroke:none;" d="M221 163L222 164L221 163z"/>
<path style="fill:#f8fcf9; stroke:none;" d="M232 163L233 164L232 163z"/>
<path style="fill:#efe134; stroke:none;" d="M233 163L232 175C236.41 172.272 235.083 167.623 235 163L233 163z"/>
<path style="fill:#0ea140; stroke:none;" d="M242 163L243 164L242 163M86 164L87 165L86 164M92 164L93 165L92 164z"/>
<path style="fill:#ab412c; stroke:none;" d="M174 164L175 165L174 164z"/>
<path style="fill:#f8fcf9; stroke:none;" d="M176 164L177 165L176 164z"/>
<path style="fill:#0ea140; stroke:none;" d="M194 164L195 165L194 164M198 164L199 165L198 164M203 164L204 165L203 164z"/>
<path style="fill:#ab412c; stroke:none;" d="M214 164L215 165L214 164z"/>
<path style="fill:#0ea140; stroke:none;" d="M222 164L222 174L223 174L222 164M231 164L231 170L232 170L231 164M235 164L235 170L236 170L235 164M243 164L244 165L243 164M308 164L309 165L308 164z"/>
<path style="fill:#ab412c; stroke:none;" d="M324 164L325 165L324 164z"/>
<path style="fill:#efe134; stroke:none;" d="M87 165L88 166L87 165z"/>
<path style="fill:#0ea140; stroke:none;" d="M88 165L89 166L88 165z"/>
<path style="fill:#ab412c; stroke:none;" d="M323 165L324 166L323 165M180 166L181 167L180 166z"/>
<path style="fill:#f8fcf9; stroke:none;" d="M219 166L220 167L219 166z"/>
<path style="fill:#ab412c; stroke:none;" d="M311 166L312 167L311 166z"/>
<path style="fill:#0ea140; stroke:none;" d="M322 166L323 167L322 166M79 167L80 168L79 167M89 167L90 168L89 167z"/>
<path style="fill:#ab412c; stroke:none;" d="M177 167L178 168L177 167M183 167L184 168L183 167M197 167L198 168L197 167z"/>
<path style="fill:#0ea140; stroke:none;" d="M303 167L304 168L303 167z"/>
<path style="fill:#f8fcf9; stroke:none;" d="M307 167L308 168L307 167z"/>
<path style="fill:#0ea140; stroke:none;" d="M321 167L322 168L321 167z"/>
<path style="fill:#ab412c; stroke:none;" d="M201 168L202 169L201 168M320 168L321 169L320 168z"/>
<path style="fill:#0ea140; stroke:none;" d="M201 169L202 170L201 169M85 170L86 171L85 170z"/>
<path style="fill:#ab412c; stroke:none;" d="M173 170L174 171L173 170M231 170L231 173L232 173L231 170z"/>
<path style="fill:#0ea140; stroke:none;" d="M317 170L318 171L317 170z"/>
<path style="fill:#f8fcf9; stroke:none;" d="M169 171L170 172L169 171z"/>
<path style="fill:#0ea140; stroke:none;" d="M170 171L171 172L170 171M235 171L236 172L235 171z"/>
<path style="fill:#ab412c; stroke:none;" d="M244 171L245 172L244 171M307 171L308 172L307 171z"/>
<path style="fill:#0ea140; stroke:none;" d="M315 171L316 172L315 171z"/>
<path style="fill:#ab412c; stroke:none;" d="M82 172L83 173L82 172M235 172L236 173L235 172M222 174L222 177L223 177L222 174z"/>
<path style="fill:#0ea140; stroke:none;" d="M234 174L235 175L234 174M241 174L242 175L241 174M167 175L168 176L167 175M238 175L239 176L238 175z"/>
<path style="fill:#efe134; stroke:none;" d="M239 175L240 176L239 175z"/>
<path style="fill:#f8fcf9; stroke:none;" d="M240 175L241 176L240 175z"/>
<path style="fill:#0ea140; stroke:none;" d="M170 176L171 177L170 176M222 177L222 182L223 182L222 177z"/>
<path style="fill:#f8fcf9; stroke:none;" d="M232 177L233 178L232 177z"/>
<path style="fill:#0ea140; stroke:none;" d="M242 177L243 178L242 177M231 178L231 183L232 183L231 178M235 178L235 182L236 182L235 178M243 178L244 179L243 178M201 180L202 181L201 180z"/>
<path style="fill:#ab412c; stroke:none;" d="M244 181L244 185L245 185L244 181M173 182L174 183L173 182z"/>
<path style="fill:#0ea140; stroke:none;" d="M174 182L175 183L174 182M216.667 182.333L217.333 182.667L216.667 182.333z"/>
<path style="fill:#ab412c; stroke:none;" d="M222 182L222 185L223 185L222 182M235 182L235 186L236 186L235 182z"/>
<path style="fill:#efe134; stroke:none;" d="M0 183L1 184L0 183z"/>
<path style="fill:#0ea140; stroke:none;" d="M175 183L176 184L175 183M202 183L203 184L202 183z"/>
<path style="fill:#f8fcf9; stroke:none;" d="M0 184L0 400L70 400L54.3441 350L24 256L9.71991 212L0 184z"/>
<path style="fill:#ab412c; stroke:none;" d="M171 184L172 185L171 184z"/>
<path style="fill:#0ea140; stroke:none;" d="M231 184L232 185L231 184z"/>
<path style="fill:#f8fcf9; stroke:none;" d="M399 184C386.109 239.721 363.116 294.406 345.975 349C340.772 365.572 332.539 382.805 330 400L400 400L400 248L400 204L399 184z"/>
<path style="fill:#0ea140; stroke:none;" d="M192 185L193 186L192 185M218 185L219 186L218 185z"/>
<path style="fill:#efe134; stroke:none;" d="M1 186L2 187L1 186z"/>
<path style="fill:#f8fcf9; stroke:none;" d="M168 186L169 187L168 186z"/>
<path style="fill:#0ea140; stroke:none;" d="M170 186L171 187L170 186z"/>
<path style="fill:#ab412c; stroke:none;" d="M204 186L205 187L204 186z"/>
<path style="fill:#0ea140; stroke:none;" d="M235 186L236 187L235 186z"/>
<path style="fill:#efe134; stroke:none;" d="M398 186L399 187L398 186z"/>
<path style="fill:#ab412c; stroke:none;" d="M156 187L157 188L156 187M174 187L175 188L174 187M205 187L206 188L205 187z"/>
<path style="fill:#0ea140; stroke:none;" d="M217 187L218 188L217 187z"/>
<path style="fill:#ab412c; stroke:none;" d="M181 188L182 189L181 188z"/>
<path style="fill:#0ea140; stroke:none;" d="M236 188L237 189L236 188z"/>
<path style="fill:#efe134; stroke:none;" d="M2 189L3 190L2 189z"/>
<path style="fill:#ab412c; stroke:none;" d="M210 189L210 190L213 190L210 189z"/>
<path style="fill:#efe134; stroke:none;" d="M397 189L398 190L397 189z"/>
<path style="fill:#21445d; stroke:none;" d="M73 230L66 252L69 250L70 250C72.7816 253.621 75.8928 257.395 80.0008 259.558C105.534 273.003 121.619 224.866 89 222C90.7991 217.584 92.1025 213.844 91.9838 209C91.9044 205.76 91.2545 202.839 89.6327 200.001C73.8031 172.3 36.9636 208.629 62.0394 226.147C65.2961 228.422 69.1356 229.429 73 230z"/>
<path style="fill:#ab412c; stroke:none;" d="M80 191L81 192L80 191z"/>
<path style="fill:#efe134; stroke:none;" d="M3 192L4 193L3 192z"/>
<path style="fill:#ab412c; stroke:none;" d="M82 192L83 193L82 192z"/>
<path style="fill:#efe134; stroke:none;" d="M396 192L397 193L396 192z"/>
<path style="fill:#ab412c; stroke:none;" d="M60 194L61 195L60 194z"/>
<path style="fill:#efe134; stroke:none;" d="M58 213C68.1711 212.57 75.2052 213.49 82 222L84 222C88.0885 215.492 90.0502 206.87 85.1458 200.094C78.7713 191.287 64.3883 192.275 59.4568 202.004C57.7285 205.414 58.0025 209.293 58 213z"/>
<path style="fill:#ab412c; stroke:none;" d="M77 194L78 195L77 194z"/>
<path style="fill:#0ea140; stroke:none;" d="M85 194L86 195L85 194z"/>
<path style="fill:#ab412c; stroke:none;" d="M59 195L60 196L59 195M86 195L87 196L86 195M58 196L59 197L58 196M81 196L82 197L81 196M87 196L88 197L87 196M57 197L58 198L57 197M89 199L90 200L89 199M85 200L86 201L85 200M90 201L91 202L90 201z"/>
<path style="fill:#21445d; stroke:none;" d="M326 218L325 218L321.258 206.032L309 206.606L299 204C300.439 208.325 302.348 211.218 307 212C307.754 216.61 318.724 226.234 323 222L324 222L321 238C315.618 236.401 311.561 233.547 310 228L319 232L320 231C318.337 227.911 309.382 222.574 308.507 229.148C307.985 233.066 311.615 236.444 314 239C307.537 242.564 310.793 249.07 314 254C306.16 256.38 309.728 264.423 312 270L310 267C303.968 272.341 308.651 278.195 309 285L308 285L307 279L306 279L305 290L306 290L307 285L308 285L309 287L309 275L310 275L311 278C316.015 273.571 314.256 269.539 312 264L313 264L314 267C319.738 264.936 320.616 260.521 319 255C326.209 253.113 328.463 248.929 326 242C338.894 245.695 338.092 230.054 326 233L326 235L335 237L335 239L321 239L321 238L326 224C333.899 230.446 347.934 231.525 357 227L338 212.636L329 218L332 202C327.033 204.739 326.781 212.689 326 218z"/>
<path style="fill:#ab412c; stroke:none;" d="M54 203L55 204L54 203M91 203L92 204L91 203M299 203L300 204L299 203M87 204L88 205L87 204M301 204L302 205L301 204M319.667 204.333L320.333 204.667L319.667 204.333M333 204L334 205L333 204z"/>
<path style="fill:#0ea140; stroke:none;" d="M159 205L159 206L182 206L159 205z"/>
<path style="fill:#ab412c; stroke:none;" d="M315 205L316 206L315 205z"/>
<path style="fill:#21445d; stroke:none;" d="M157 206C162.204 223.826 162.204 240.174 157 258C170.897 258 195.616 264.519 196 246L180 255L180.147 215.043L184 206L157 206z"/>
<path style="fill:#ab412c; stroke:none;" d="M299 206L300 207L299 206M305 206L306 207L305 206M310 206L311 207L310 206M322 206L323 207L322 206M333 206L334 207L333 206M57.3333 208.667L57.6667 209.333L57.3333 208.667M332 208L333 209L332 208M53.3333 209.667L53.6667 210.333L53.3333 209.667z"/>
<path style="fill:#0ea140; stroke:none;" d="M157 209L158 210L157 209z"/>
<path style="fill:#ab412c; stroke:none;" d="M331 209L332 210L331 209z"/>
<path style="fill:#0ea140; stroke:none;" d="M57 210L58 211L57 210M159 210L160 211L159 210z"/>
<path style="fill:#ab412c; stroke:none;" d="M302 210L303 211L302 210z"/>
<path style="fill:#efe134; stroke:none;" d="M9 211L10 212L9 211z"/>
<path style="fill:#ab412c; stroke:none;" d="M327 211L328 212L327 211M330 211L331 212L330 211z"/>
<path style="fill:#efe134; stroke:none;" d="M390 211L391 212L390 211z"/>
<path style="fill:#0ea140; stroke:none;" d="M58 213L59 217C69.2236 215.715 72.2981 219.967 81 224L82 223C78.3179 212.4 67.3494 212.263 58 213z"/>
<path style="fill:#f8fcf9; stroke:none;" d="M160 212L161 213L160 212z"/>
<path style="fill:#ab412c; stroke:none;" d="M305.667 212.333L306.333 212.667L305.667 212.333z"/>
<path style="fill:#efe134; stroke:none;" d="M10 214L11 215L10 214z"/>
<path style="fill:#ab412c; stroke:none;" d="M306 214L307 215L306 214M326 214L327 215L326 214M329.333 214.667L329.667 215.333L329.333 214.667z"/>
<path style="fill:#efe134; stroke:none;" d="M389 214L390 215L389 214z"/>
<path style="fill:#ab412c; stroke:none;" d="M87 215L88 216L87 215M307 215L308 216L307 215M333 215L334 216L333 215M342 215L343 216L342 215z"/>
<path style="fill:#0ea140; stroke:none;" d="M54 216C47.2688 223.1 44.1734 231.566 48.3634 241C51.7788 248.69 62.3845 255.936 69 248C61.8075 247.936 56.0543 245.657 52.4174 238.999C49.2974 233.287 49.8444 223.301 57 221L54 216z"/>
<path style="fill:#efe134; stroke:none;" d="M60 217C63.7763 225.025 70.9177 226.495 79 225C75.3391 217.221 67.9606 215.11 60 217z"/>
<path style="fill:#ab412c; stroke:none;" d="M91 216L92 217L91 216M325 216L326 217L325 216z"/>
<path style="fill:#efe134; stroke:none;" d="M11 217L12 218L11 217M325 217L326 218L325 217z"/>
<path style="fill:#ab412c; stroke:none;" d="M329 217L330 218L329 217z"/>
<path style="fill:#efe134; stroke:none;" d="M388 217L389 218L388 217z"/>
<path style="fill:#ab412c; stroke:none;" d="M90 218L91 219L90 218z"/>
<path style="fill:#21445d; stroke:none;" d="M202 218L202 222C206.267 224.493 205.992 228.414 206 233C206.015 242.071 209.488 259.763 202 266C203.557 270.69 221.143 273.065 223.829 268.397C225.343 265.765 222 251.205 222 247C235.668 247.751 225.677 260.436 231.742 267.566C235.257 271.698 244.16 270 249 270C247.624 258.706 247.119 250.053 236 245C247.964 239.564 253.343 225.764 238 219.483C227.854 215.329 212.834 218 202 218z"/>
<path style="fill:#ab412c; stroke:none;" d="M235 218L236 219L235 218M310 218L311 219L310 218M85 219L86 220L85 219z"/>
<path style="fill:#0ea140; stroke:none;" d="M238 219L239 220L238 219z"/>
<path style="fill:#ab412c; stroke:none;" d="M313 219L314 220L313 219z"/>
<path style="fill:#efe134; stroke:none;" d="M328 219L329 220L328 219z"/>
<path style="fill:#ab412c; stroke:none;" d="M345 219L346 220L345 219z"/>
<path style="fill:#efe134; stroke:none;" d="M12 220L13 221L12 220M55 220C45.0369 234.117 53.3868 247.989 70 248L73 230L55 220z"/>
<path style="fill:#0ea140; stroke:none;" d="M61 220L62 221L61 220z"/>
<path style="fill:#ab412c; stroke:none;" d="M89 220L90 221L89 220z"/>
<path style="fill:#0ea140; stroke:none;" d="M240 220L241 221L240 220z"/>
<path style="fill:#efe134; stroke:none;" d="M324.333 220.667L324.667 221.333L324.333 220.667z"/>
<path style="fill:#ab412c; stroke:none;" d="M346 220L347 221L346 220z"/>
<path style="fill:#efe134; stroke:none;" d="M387 220L388 221L387 220z"/>
<path style="fill:#ab412c; stroke:none;" d="M57 221L58 222L57 221z"/>
<path style="fill:#0ea140; stroke:none;" d="M62 221L63 222L62 221M223 221L222 243L223 243L223 221z"/>
<path style="fill:#efe134; stroke:none;" d="M224 221L223 243C233.321 242.203 232.771 223.909 224 221z"/>
<path style="fill:#0ea140; stroke:none;" d="M225.667 221.333L226.333 221.667L225.667 221.333z"/>
<path style="fill:#ab412c; stroke:none;" d="M63 222L64 223L63 222M93 222L94 223L93 222z"/>
<path style="fill:#0ea140; stroke:none;" d="M204 222L205 223L204 222M243 222L244 223L243 222z"/>
<path style="fill:#ab412c; stroke:none;" d="M318 222L319 223L318 222M323 222L324 223L323 222M327 222L328 223L327 222z"/>
<path style="fill:#efe134; stroke:none;" d="M13 223L14 224L13 223z"/>
<path style="fill:#0ea140; stroke:none;" d="M229 223L230 224L229 223M244 223L245 224L244 223z"/>
<path style="fill:#ab412c; stroke:none;" d="M319 223L320 224L319 223M349 223L350 224L349 223z"/>
<path style="fill:#efe134; stroke:none;" d="M386 223L387 224L386 223z"/>
<path style="fill:#0ea140; stroke:none;" d="M205 224L206 225L205 224z"/>
<path style="fill:#ab412c; stroke:none;" d="M326 224L327 225L326 224M69 225L70 226L69 225z"/>
<path style="fill:#0ea140; stroke:none;" d="M76 225L77 226L76 225z"/>
<path style="fill:#ab412c; stroke:none;" d="M310 225L311 226L310 225M327 225L328 226L327 225M354 225L354 226L357 226L354 225z"/>
<path style="fill:#efe134; stroke:none;" d="M14 226L15 227L14 226z"/>
<path style="fill:#ab412c; stroke:none;" d="M62 226L63 227L62 226z"/>
<path style="fill:#0ea140; stroke:none;" d="M84 226L80 228C81.8956 236.055 78.2671 240.516 74 247C82.85 244.599 88.0884 234.975 84 226z"/>
<path style="fill:#efe134; stroke:none;" d="M84 227C85.8738 234.892 82.6107 239.815 80 247C86.4518 247.664 91.0198 251.015 95 256C112.749 249.677 101.976 221.698 84 227z"/>
<path style="fill:#ab412c; stroke:none;" d="M246 226L247 227L246 226M308 226L309 227L308 226M315.667 226.333L316.333 226.667L315.667 226.333M328 226L329 227L328 226z"/>
<path style="fill:#efe134; stroke:none;" d="M385 226L386 227L385 226z"/>
<path style="fill:#ab412c; stroke:none;" d="M95 227L96 228L95 227M318 227L319 228L318 227M325 227L326 228L325 227M331 227L332 228L331 227M333 227L334 228L333 227M66 228L67 229L66 228z"/>
<path style="fill:#0ea140; stroke:none;" d="M247 228L248 229L247 228z"/>
<path style="fill:#ab412c; stroke:none;" d="M322 228L323 229L322 228M337 228L338 229L337 228M354 228L355 229L354 228M69 229L70 230L69 229z"/>
<path style="fill:#efe134; stroke:none;" d="M79 229C74.5055 234.489 74.0008 239.111 74 246C79.0395 242.099 83.429 234.853 79 229z"/>
<path style="fill:#f8fcf9; stroke:none;" d="M80 229L81 230L80 229z"/>
<path style="fill:#ab412c; stroke:none;" d="M98 229L99 230L98 229M343 229L344 230L343 229M345 229L346 230L345 229M348 229L349 230L348 229M350 229L351 230L350 229M99 230L100 231L99 230M104 230L105 231L104 230M315 230L316 231L315 230M100 231L101 232L100 231M308 231L309 232L308 231M310 231L311 232L310 231M316 231L317 232L316 231M319 231L320 232L319 231M321.333 231.667L321.667 232.333L321.333 231.667M328 231L329 232L328 231M71 232L72 233L71 232M101 232L102 233L101 232M311 232L312 233L311 232M326 232L327 233L326 232M331 232L332 233L331 232M75 233L76 234L75 233M106 233L107 234L106 233M102 234L103 235L102 234M313 234L314 235L313 234M323 234L324 235L323 234M70 235L71 236L70 235M74 235L75 236L74 235M314 235L315 236L314 235M320 235L321 236L320 235M103 236L104 237L103 236M107 236L108 237L107 236M247 236L248 237L247 236z"/>
<path style="fill:#f8fcf9; stroke:none;" d="M310 236L311 237L310 236z"/>
<path style="fill:#ab412c; stroke:none;" d="M311 236L312 237L311 236M316 236L317 237L316 236M312 237L313 238L312 237M318 237L319 238L318 237M322 237L323 238L322 237M313 238L314 239L313 238M69 239L69 244L70 244L69 239M73 239L73 245L74 245L73 239M245 239L246 240L245 239z"/>
<path style="fill:#efe134; stroke:none;" d="M314 239L315 240L314 239M381 239L382 240L381 239z"/>
<path style="fill:#0ea140; stroke:none;" d="M229 240L230 241L229 240z"/>
<path style="fill:#ab412c; stroke:none;" d="M244 240L245 241L244 240M310 240L311 241L310 240M315.333 240.667L315.667 241.333L315.333 240.667z"/>
<path style="fill:#efe134; stroke:none;" d="M316 240C315.124 241.298 313.991 242.643 313.589 244.194C310.463 256.24 331.759 250.991 319.986 242C318.792 241.088 317.354 240.598 316 240z"/>
<path style="fill:#ab412c; stroke:none;" d="M323 240L324 241L323 240M328 240L328 241L331 241L328 240M243 241L244 242L243 241z"/>
<path style="fill:#efe134; stroke:none;" d="M325 241L326 242L325 241M19 242L20 243L19 242z"/>
<path style="fill:#ab412c; stroke:none;" d="M104 242L105 243L104 242M318 242L319 243L318 242M326 242L331 244L331 243L326 242M333 242L334 243L333 242z"/>
<path style="fill:#efe134; stroke:none;" d="M380 242L381 243L380 242z"/>
<path style="fill:#0ea140; stroke:none;" d="M239 243L240 244L239 243z"/>
<path style="fill:#ab412c; stroke:none;" d="M309 243L309 246L310 246L309 243z"/>
<path style="fill:#21445d; stroke:none;" d="M318 243L317 252L320 243L318 243z"/>
<path style="fill:#ab412c; stroke:none;" d="M320 243L321 244L320 243z"/>
<path style="fill:#0ea140; stroke:none;" d="M236.333 244.667L236.667 245.333L236.333 244.667z"/>
<path style="fill:#ab412c; stroke:none;" d="M312 244L312 247L313 247L312 244z"/>
<path style="fill:#efe134; stroke:none;" d="M20 245L21 246L20 245z"/>
<path style="fill:#ab412c; stroke:none;" d="M317.333 245.667L317.667 246.333L317.333 245.667M327 245L328 246L327 245z"/>
<path style="fill:#efe134; stroke:none;" d="M379 245L380 246L379 245z"/>
<path style="fill:#ab412c; stroke:none;" d="M79 246L80 247L79 246M196.333 246.667L196.667 247.333L196.333 246.667z"/>
<path style="fill:#0ea140; stroke:none;" d="M239 246L240 247L239 246z"/>
<path style="fill:#ab412c; stroke:none;" d="M319 246L320 247L319 246M75 249L77 253L78 253C78 246.743 89.5796 255.547 91 258L95 256C90.6942 248.08 83.1419 245.952 75 249M103 247L104 248L103 247M107 247L108 248L107 247z"/>
<path style="fill:#0ea140; stroke:none;" d="M222 247L222 256L223 256L222 247z"/>
<path style="fill:#f8fcf9; stroke:none;" d="M223 247L224 248L223 247z"/>
<path style="fill:#efe134; stroke:none;" d="M21 248L22 249L21 248z"/>
<path style="fill:#ab412c; stroke:none;" d="M69 248L70 249L69 248z"/>
<path style="fill:#0ea140; stroke:none;" d="M229 248L230 249L229 248M243 248L244 249L243 248z"/>
<path style="fill:#ab412c; stroke:none;" d="M310 248L311 249L310 248M313 248L314 249L313 248z"/>
<path style="fill:#efe134; stroke:none;" d="M378 248L379 249L378 248z"/>
<path style="fill:#ab412c; stroke:none;" d="M102 249L103 250L102 249z"/>
<path style="fill:#0ea140; stroke:none;" d="M244 249L245 250L244 249z"/>
<path style="fill:#ab412c; stroke:none;" d="M316 249L317 250L316 249M327 249L328 250L327 249M69 250C51.5781 262.274 61.8728 291.253 84 286C92.4928 307.861 125.309 296.418 120.481 274C116.995 257.809 95.7461 252.008 85.8032 266.015C83.0907 269.836 83.1683 281.888 77.9414 282.214C61.7735 283.22 60.534 258.866 73 253L73 252L69 250M106 250L107 251L106 250z"/>
<path style="fill:#efe134; stroke:none;" d="M22 251L23 252L22 251M77 251C80.0588 256.289 85.1368 257.731 91 258C88.1652 252.25 83.0325 251.128 77 251z"/>
<path style="fill:#ab412c; stroke:none;" d="M101 251L102 252L101 251M312 251L313 252L312 251M326 251L327 252L326 251z"/>
<path style="fill:#efe134; stroke:none;" d="M377 251L378 252L377 251z"/>
<path style="fill:#ab412c; stroke:none;" d="M100 252L101 253L100 252M105 252L106 253L105 252M195 252L196 253L195 252M318 252L318 255L319 255L318 252M325 252L326 253L325 252z"/>
<path style="fill:#efe134; stroke:none;" d="M89 262C83.6723 261.278 74.0328 252.651 70.0285 254.175C60.5369 257.787 63.3461 273.51 69.1049 278.772C71.4506 280.916 77.2141 284.218 80.3966 281.933C83.4095 279.769 86.4698 266.104 89 262z"/>
<path style="fill:#ab412c; stroke:none;" d="M104 253L105 254L104 253z"/>
<path style="fill:#f8fcf9; stroke:none;" d="M180 253L181 254L180 253z"/>
<path style="fill:#ab412c; stroke:none;" d="M246 253L247 254L246 253M312 253L313 254L312 253z"/>
<path style="fill:#efe134; stroke:none;" d="M313 253L314 254L313 253M23 254L24 255L23 254z"/>
<path style="fill:#0ea140; stroke:none;" d="M184 254L185 255L184 254z"/>
<path style="fill:#f8fcf9; stroke:none;" d="M314 254L315 255L314 254z"/>
<path style="fill:#ab412c; stroke:none;" d="M321 254L322 255L321 254z"/>
<path style="fill:#efe134; stroke:none;" d="M376 254L377 255L376 254z"/>
<path style="fill:#ab412c; stroke:none;" d="M80 255L81 256L80 255M97 255L98 256L97 255M314 255L315 256L314 255z"/>
<path style="fill:#efe134; stroke:none;" d="M315 255L316 256L315 255z"/>
<path style="fill:#ab412c; stroke:none;" d="M75 256L76 257L75 256M82 256L83 257L82 256M95 256L96 257L95 256z"/>
<path style="fill:#0ea140; stroke:none;" d="M194 256L195 257L194 256z"/>
<path style="fill:#ab412c; stroke:none;" d="M222 256L222 262L223 262L222 256M312 256L311 258L312 256z"/>
<path style="fill:#efe134; stroke:none;" d="M313 256L311 264L312 264L313 256M316 256L314 265C317.644 262.63 318.471 259.683 316 256M24 257L25 258L24 257z"/>
<path style="fill:#ab412c; stroke:none;" d="M85 257L86 258L85 257M317 257L318 258L317 257z"/>
<path style="fill:#efe134; stroke:none;" d="M375 257L376 258L375 257z"/>
<path style="fill:#ab412c; stroke:none;" d="M308 258L308 262L309 262L308 258M79 259L80 260L79 259M313 259L314 260L313 259M320.333 259.667L320.667 260.333L320.333 259.667z"/>
<path style="fill:#efe134; stroke:none;" d="M25 260L26 261L25 260z"/>
<path style="fill:#ab412c; stroke:none;" d="M81 260L82 261L81 260z"/>
<path style="fill:#efe134; stroke:none;" d="M374 260L375 261L374 260z"/>
<path style="fill:#ab412c; stroke:none;" d="M85 261L86 262L85 261z"/>
<path style="fill:#0ea140; stroke:none;" d="M205 261L205 264L206 264L205 261z"/>
<path style="fill:#efe134; stroke:none;" d="M98 262C98.3614 271.611 96.1674 278.23 88 284C97.1154 310.737 134.171 276.941 107.996 263.688C104.827 262.084 101.465 262.029 98 262z"/>
<path style="fill:#0ea140; stroke:none;" d="M222.333 262.667L222.667 263.333L222.333 262.667z"/>
<path style="fill:#ab412c; stroke:none;" d="M312 262L313 263L312 262M314 262L315 263L314 262M317 262L318 263L317 262M319 263L320 264L319 263z"/>
<path style="fill:#efe134; stroke:none;" d="M93 264C87.9985 269.288 86.0609 273.745 86 281C91.4453 277.072 95.8643 270.841 93 264z"/>
<path style="fill:#ab412c; stroke:none;" d="M309 264L310 265L309 264M312 264L312 266L314 266L312 264M315 264L316 265L315 264M203 265L204 266L203 265z"/>
<path style="fill:#0ea140; stroke:none;" d="M230 266L231 267L230 266z"/>
<path style="fill:#ab412c; stroke:none;" d="M310 266L311 267L310 266z"/>
<path style="fill:#efe134; stroke:none;" d="M313 266L314 267L313 266z"/>
<path style="fill:#ab412c; stroke:none;" d="M316 266L317 267L316 266z"/>
<path style="fill:#efe134; stroke:none;" d="M310 267L312 270L310 267z"/>
<path style="fill:#ab412c; stroke:none;" d="M313.667 267.333L314.333 267.667L313.667 267.333M311 268L312 269L311 268M202 269L203 270L202 269M224 269L225 270L224 269z"/>
<path style="fill:#0ea140; stroke:none;" d="M233 269L234 270L233 269z"/>
<path style="fill:#ab412c; stroke:none;" d="M314 269L315 270L314 269z"/>
<path style="fill:#efe134; stroke:none;" d="M309 270L308 274L309 274L309 270z"/>
<path style="fill:#ab412c; stroke:none;" d="M312 270L313 271L312 270z"/>
<path style="fill:#efe134; stroke:none;" d="M312 271L311 274L312 271z"/>
<path style="fill:#ab412c; stroke:none;" d="M311 272L312 273L311 272z"/>
<path style="fill:#efe134; stroke:none;" d="M29 273L30 274L29 273z"/>
<path style="fill:#ab412c; stroke:none;" d="M309 273L310 274L309 273M306 274L307 275L306 274M308 274L309 275L308 274z"/>
<path style="fill:#f8fcf9; stroke:none;" d="M311 274L312 275L311 274z"/>
<path style="fill:#ab412c; stroke:none;" d="M312 274L313 275L312 274M314 274L315 275L314 274M309 275L310 276L309 275M311 275L312 276L311 275M312 277L313 278L312 277z"/>
<path style="fill:#efe134; stroke:none;" d="M31 279L32 280L31 279z"/>
<path style="fill:#ab412c; stroke:none;" d="M308 279L308 282L309 282L308 279M305 280L306 281L305 280z"/>
<path style="fill:#efe134; stroke:none;" d="M308 280L309 281L308 280z"/>
<path style="fill:#ab412c; stroke:none;" d="M310 280L310 283L311 283L310 280z"/>
<path style="fill:#efe134; stroke:none;" d="M306.333 281.667L306.667 282.333L306.333 281.667M32 282L33 283L32 282M308 282L309 283L308 282M367 282L368 283L367 282z"/>
<path style="fill:#ab412c; stroke:none;" d="M304 283L306 288L304 283M308.333 283.667L308.667 284.333L308.333 283.667z"/>
<path style="fill:#efe134; stroke:none;" d="M33 285L34 286L33 285z"/>
<path style="fill:#ab412c; stroke:none;" d="M307 285L308 286L307 285M309 285L310 286L309 285z"/>
<path style="fill:#efe134; stroke:none;" d="M366 285L367 286L366 285M307 286L308 287L307 286z"/>
<path style="fill:#ab412c; stroke:none;" d="M307 287L308 288L307 287z"/>
<path style="fill:#efe134; stroke:none;" d="M34 288L35 289L34 288M365 288L366 289L365 288z"/>
<path style="fill:#ab412c; stroke:none;" d="M305 290L306 291L305 290z"/>
<path style="fill:#efe134; stroke:none;" d="M35 291L36 292L35 291z"/>
<path style="fill:#21445d; stroke:none;" d="M304 291L304 294L305 294L304 291z"/>
<path style="fill:#efe134; stroke:none;" d="M364 291L365 292L364 291M36 294L37 295L36 294M37 297L38 298L37 297M41 310L42 311L41 310M358 310L359 311L358 310M42 313L43 314L42 313M357 313L358 314L357 313M43 316L44 317L43 316M356 316L357 317L356 316M44 319L45 320L44 319M355 319L356 320L355 319M45 322L46 323L45 322M353 325L354 326L353 325z"/>
<path style="fill:#ab412c; stroke:none;" d="M103 326L102 329L103 329L103 326z"/>
<path style="fill:#21445d; stroke:none;" d="M103 327C106.69 338.826 105.446 352.086 103 364L119 364L117 347C125.996 350.161 119.604 356.79 124.028 362.258C126.36 365.141 132.731 364 136 364C134.99 356.053 134.676 349.863 127 346C134.071 342.471 139.16 333.592 129.956 328.442C123.049 324.578 110.387 324.816 103 327z"/>
<path style="fill:#0ea140; stroke:none;" d="M124.667 326.333L125.333 326.667L124.667 326.333z"/>
<path style="fill:#ab412c; stroke:none;" d="M144 326L145 327L144 326z"/>
<path style="fill:#21445d; stroke:none;" d="M144 327C148.485 337.654 141.471 353.57 138 364L148 364C143.771 354.265 155.703 354.367 153 364L169 363C161.277 349.031 167.266 320.123 144 327M173 326L172 334L182 329L171 364L193 364L194 356L184 362L194 326L173 326z"/>
<path style="fill:#ab412c; stroke:none;" d="M196 326L196 329L197 329L196 326z"/>
<path style="fill:#21445d; stroke:none;" d="M197 326C199.121 335.026 202.96 354.628 196 362L196 363L221 364L222 355L212 362L211 345L220 349L220 339L216 339L212 343L211 329L222 334C219.538 322.308 206.733 326 197 326z"/>
<path style="fill:#ab412c; stroke:none;" d="M225 326L226 327L225 326z"/>
<path style="fill:#21445d; stroke:none;" d="M225 335L229 335L233 329L231 364L248 364L245 329L253 335C252.952 321.276 225.048 321.276 225 335z"/>
<path style="fill:#ab412c; stroke:none;" d="M252 326L253 327L252 326z"/>
<path style="fill:#21445d; stroke:none;" d="M257 326L256 335C259.923 334.348 260.81 332.676 262 329L264 329C266.769 340.63 265.141 352.947 262 364L279 364L277 329L285 335L284 326L257 326z"/>
<path style="fill:#ab412c; stroke:none;" d="M287 326L288 327L287 326z"/>
<path style="fill:#21445d; stroke:none;" d="M287 327C292.486 336.973 291.521 353.896 287 364L305 364C302.525 355.29 297.464 336.38 305 329L305 327L287 327z"/>
<path style="fill:#ab412c; stroke:none;" d="M304 326L305 327L304 326z"/>
<path style="fill:#0ea140; stroke:none;" d="M256.333 327.667L256.667 328.333L256.333 327.667z"/>
<path style="fill:#efe134; stroke:none;" d="M47 328L48 329L47 328z"/>
<path style="fill:#0ea140; stroke:none;" d="M130 328L131 329L130 328z"/>
<path style="fill:#ab412c; stroke:none;" d="M144 328L145 329L144 328z"/>
<path style="fill:#0ea140; stroke:none;" d="M284 328L285 329L284 328z"/>
<path style="fill:#ab412c; stroke:none;" d="M287 328L288 329L287 328z"/>
<path style="fill:#efe134; stroke:none;" d="M352 328L353 329L352 328M117 329L118 345C124.184 342.514 124.035 330.174 117 329z"/>
<path style="fill:#ab412c; stroke:none;" d="M121 329L122 330L121 329z"/>
<path style="fill:#0ea140; stroke:none;" d="M145 329L146 330L145 329M172 329L173 330L172 329M198 329L199 330L198 329M211 329L212 330L211 329M230 329L231 330L230 329z"/>
<path style="fill:#f8fcf9; stroke:none;" d="M231 329L232 330L231 329M245 329L246 330L245 329z"/>
<path style="fill:#0ea140; stroke:none;" d="M247 329L248 330L247 329z"/>
<path style="fill:#f8fcf9; stroke:none;" d="M263 329L264 330L263 329M277.333 329.667L277.667 330.333L277.333 329.667z"/>
<path style="fill:#ab412c; stroke:none;" d="M288 329L289 330L288 329z"/>
<path style="fill:#0ea140; stroke:none;" d="M303 329L304 330L303 329M160 330L161 331L160 330M177 330L178 331L177 330M261 330L262 331L261 330M264 330L264 357L265 357L264 330M302 330L303 331L302 330M122 331L122 336L123 336L122 331M221 331L222 332L221 331z"/>
<path style="fill:#f8fcf9; stroke:none;" d="M255 331L256 332L255 331z"/>
<path style="fill:#0ea140; stroke:none;" d="M134 332L135 333L134 332z"/>
<path style="fill:#ab412c; stroke:none;" d="M192 332L193 333L192 332M229 332L230 333L229 332z"/>
<path style="fill:#0ea140; stroke:none;" d="M248 332L249 333L248 332M253.333 332.667L253.667 333.333L253.333 332.667M217 333L218 334L217 333M280 333L281 334L280 333z"/>
<path style="fill:#ab412c; stroke:none;" d="M145.333 334.667L145.667 335.333L145.333 334.667M172 334L172 335L175 335L172 334z"/>
<path style="fill:#0ea140; stroke:none;" d="M211.333 334.667L211.667 335.333L211.333 334.667z"/>
<path style="fill:#ab412c; stroke:none;" d="M219 334L219 335L222 335L219 334M249 334L250 335L249 334z"/>
<path style="fill:#0ea140; stroke:none;" d="M260 334L261 335L260 334M161 335L162 336L161 335M191 335L192 336L191 335z"/>
<path style="fill:#ab412c; stroke:none;" d="M122 336L123 337L122 336z"/>
<path style="fill:#0ea140; stroke:none;" d="M135.333 336.667L135.667 337.333L135.333 336.667M122 337L122 341L123 341L122 337M150 337L149 339L150 337M211.333 337.667L211.667 338.333L211.333 337.667z"/>
<path style="fill:#efe134; stroke:none;" d="M150 338C148.143 343.807 144.346 352.326 153 353L150 338z"/>
<path style="fill:#ab412c; stroke:none;" d="M144 339L145 340L144 339z"/>
<path style="fill:#f8fcf9; stroke:none;" d="M149 340L150 341L149 340z"/>
<path style="fill:#ab412c; stroke:none;" d="M178 340L179 341L178 340z"/>
<path style="fill:#0ea140; stroke:none;" d="M151 341L152 342L151 341M211 341L212 342L211 341M215 341L216 342L215 341z"/>
<path style="fill:#efe134; stroke:none;" d="M348 341L349 342L348 341z"/>
<path style="fill:#ab412c; stroke:none;" d="M148 342L149 343L148 342z"/>
<path style="fill:#0ea140; stroke:none;" d="M189 342L190 343L189 342M212 342L213 343L212 342z"/>
<path style="fill:#ab412c; stroke:none;" d="M213 342L214 343L213 342M177 343L178 344L177 343z"/>
<path style="fill:#0ea140; stroke:none;" d="M117 344L118 345L117 344M120 344L121 345L120 344z"/>
<path style="fill:#ab412c; stroke:none;" d="M143 344L144 345L143 344M163 344L164 345L163 344z"/>
<path style="fill:#0ea140; stroke:none;" d="M127.333 345.667L127.667 346.333L127.333 345.667M188 345L189 346L188 345M211.333 345.667L211.667 346.333L211.333 345.667M152.333 346.667L152.667 347.333L152.333 346.667M215 346L216 347L215 346z"/>
<path style="fill:#efe134; stroke:none;" d="M53 347L54 348L53 347z"/>
<path style="fill:#0ea140; stroke:none;" d="M117 347L117 348L120 348L117 347M130 347L131 348L130 347M147 347L148 348L147 347z"/>
<path style="fill:#efe134; stroke:none;" d="M346 347L347 348L346 347z"/>
<path style="fill:#0ea140; stroke:none;" d="M142 348L143 349L142 348M187 348L188 349L187 348M216 348L217 349L216 348z"/>
<path style="fill:#ab412c; stroke:none;" d="M122 349L123 350L122 349z"/>
<path style="fill:#0ea140; stroke:none;" d="M164 349L165 350L164 349M175 349L176 350L175 349z"/>
<path style="fill:#efe134; stroke:none;" d="M54 350L55 351L54 350z"/>
<path style="fill:#0ea140; stroke:none;" d="M122 350L122 358L123 358L122 350z"/>
<path style="fill:#efe134; stroke:none;" d="M345 350L346 351L345 350z"/>
<path style="fill:#ab412c; stroke:none;" d="M134.333 352.667L134.667 353.333L134.333 352.667z"/>
<path style="fill:#f8fcf9; stroke:none;" d="M147 352L148 353L147 352z"/>
<path style="fill:#0ea140; stroke:none;" d="M153 352L154 353L153 352M174 352L175 353L174 352z"/>
<path style="fill:#efe134; stroke:none;" d="M55 353L56 354L55 353z"/>
<path style="fill:#0ea140; stroke:none;" d="M141 353L142 354L141 353z"/>
<path style="fill:#efe134; stroke:none;" d="M344 353L345 354L344 353z"/>
<path style="fill:#0ea140; stroke:none;" d="M134 354L135 355L134 354M165 354L166 355L165 354M173 355L174 356L173 355M192 355L193 356L192 355z"/>
<path style="fill:#efe134; stroke:none;" d="M56 356L57 357L56 356z"/>
<path style="fill:#0ea140; stroke:none;" d="M217 356L218 357L217 356z"/>
<path style="fill:#efe134; stroke:none;" d="M343 356L344 357L343 356z"/>
<path style="fill:#0ea140; stroke:none;" d="M140 357L141 358L140 357M145.333 357.667L145.667 358.333L145.333 357.667z"/>
<path style="fill:#ab412c; stroke:none;" d="M154 357L155 358L154 357z"/>
<path style="fill:#0ea140; stroke:none;" d="M189 357L190 358L189 357z"/>
<path style="fill:#ab412c; stroke:none;" d="M264 357L264 360L265 360L264 357M122 358L122 361L123 361L122 358z"/>
<path style="fill:#0ea140; stroke:none;" d="M154 358L155 359L154 358M172 358L173 359L172 358M184 358L185 359L184 358z"/>
<path style="fill:#efe134; stroke:none;" d="M57 359L58 360L57 359z"/>
<path style="fill:#0ea140; stroke:none;" d="M166 359L167 360L166 359M139 360L140 361L139 360M145 360L146 361L145 360M154 360L155 361L154 360M167 360L168 361L167 360z"/>
<path style="fill:#f8fcf9; stroke:none;" d="M184 360L185 361L184 360z"/>
<path style="fill:#0ea140; stroke:none;" d="M198 360L199 361L198 360M211 360L212 361L211 360M215 360L216 361L215 360M221 360L222 361L221 360M232 360L233 361L232 360M277 360L278 361L277 360M289 360L290 361L289 360z"/>
<path style="fill:#ab412c; stroke:none;" d="M138 361L139 362L138 361M147 361L148 362L147 361z"/>
<path style="fill:#0ea140; stroke:none;" d="M153 361L154 362L153 361z"/>
<path style="fill:#ab412c; stroke:none;" d="M168 361L169 362L168 361z"/>
<path style="fill:#0ea140; stroke:none;" d="M171 361L172 362L171 361M184 361L185 362L184 361z"/>
<path style="fill:#ab412c; stroke:none;" d="M196 361L197 362L196 361z"/>
<path style="fill:#0ea140; stroke:none;" d="M212 361L213 362L212 361z"/>
<path style="fill:#ab412c; stroke:none;" d="M287 361L288 362L287 361z"/>
<path style="fill:#efe134; stroke:none;" d="M58 362L59 363L58 362z"/>
<path style="fill:#0ea140; stroke:none;" d="M102 362L103 363L102 362M152 362L153 363L152 362M230 362L231 363L230 362z"/>
<path style="fill:#efe134; stroke:none;" d="M341 362L342 363L341 362z"/>
<path style="fill:#ab412c; stroke:none;" d="M124 363L125 364L124 363M168 363L169 364L168 363M196 363L197 364L196 363z"/>
<path style="fill:#efe134; stroke:none;" d="M339 368L340 369L339 368M64 381L65 382L64 381M335 381L336 382L335 381M65 384L66 385L65 384M334 384L335 385L334 384M66 387L67 388L66 387M333 387L334 388L333 387M67 390L68 391L67 390M332 390L333 391L332 390M68 393L69 394L68 393M331 393L332 394L331 393z"/>
</svg>
